# xmcd
#
# Track frame offsets: 
#        150
#        10817
#        24564
#        36184
#        48064
#        60912
#        73585
#        84221
#        96095
#        107212
#        121421
#        135644
#        146693
#        159161
#        169297
#        180267
#        192152
#        202834
#        213918
#        223452
#        234276
#        245540
#        256453
#        267057
#        275655
#
# Disc length: 3792 seconds
#
# Revision: 2
# Processed by: cddbd v1.5.2PL0 Copyright (c) Steve Scherf et al.
# Submitted via: ExactAudioCopy v1.0b3
#
DISCID=580ece19
DTITLE=Merle Travis - Hot Pickin' CD2 (Proper)
DYEAR=2003
DGENRE=Country
TTITLE0=I Like My Chicken Fryin' Size
TTITLE1=Merle's Boogie Woogie
TTITLE2=When My Baby Double Talks To Me
TTITLE3=Kentucky Means Paradise
TTITLE4=I'm A Natural Born Gambling Man
TTITLE5=Crazy Boogie
TTITLE6=T For Texas
TTITLE7=Blues Stay Away From Me
TTITLE8=Philosophy
TTITLE9=Start Even
TTITLE10=I Got A Mean Old Woman
TTITLE11=Guitar Rag
TTITLE12=Cane Bottom Chair
TTITLE13=Too Much Sugar For A Dime
TTITLE14=Spoonin' Moon
TTITLE15=Dry Bread
TTITLE16=Lost John Boogie
TTITLE17=Boogie In Minor
TTITLE18=Deep South
TTITLE19=Done Rovin'
TTITLE20=Faithful Fool
TTITLE21=Kinfolks In Carolina
TTITLE22=Rainy Day Feeling
TTITLE23=I'll See You In My Dreams
TTITLE24=Cannonball Rag
EXTD=
EXTT0=
EXTT1=
EXTT2=
EXTT3=
EXTT4=
EXTT5=
EXTT6=
EXTT7=
EXTT8=
EXTT9=
EXTT10=
EXTT11=
EXTT12=
EXTT13=
EXTT14=
EXTT15=
EXTT16=
EXTT17=
EXTT18=
EXTT19=
EXTT20=
EXTT21=
EXTT22=
EXTT23=
EXTT24=
PLAYORDER=
